# xmcd
# 
# Track frame offsets:
#     150
#     39457
#     64062
#     123199
#     176913
# 
# Disc length: 3135
# 
# Revision: 9
# Processed by: cddbd v1.5.2PL0 Copyright (c) Steve Scherf et al.
# Submitted via: fre:ac v1.0.27
# 
DISCID=3f0c3d05
DTITLE=Garbarek, Jan and Ustad Fateh Ali Khan - Ragas and Sagas
DYEAR=1992
DGENRE=World Fusion
TTITLE0=Raga I
TTITLE1=Saga
TTITLE2=Raga II
TTITLE3=Raga III
TTITLE4=Raga IV
EXTD=Full attribution: Jan Garbarek · Ustad Fateh Ali Kahn and Musicians from Pakistan\nUstad Bade Fateh Ali Khan (b.1935): voice\nJan Garbarek (b.1947): soprano sax, tenor sax\nUstad Shaukat Hussain: tabla\nUstad Nazim Ali Khan: sarangi\nDeepika Thathaal: 
EXTD=voice\nManu Katché (track 2): drums\nRecorded by Jan Erik Kongshaug at Rainbow Studio, Olso NO-03, 1990-05.\nProduced by Manfred Eichler and Jan Garbarek.\nCD: ECM 1442 (1992, 2000-08-01), UPC 731451126321.
EXTT0=(Bade Fateh Ali Khan)
EXTT1=(Jan Garbarek)
EXTT2=(Bade Fateh Ali Khan)
EXTT3=(Bade Fateh Ali Khan)
EXTT4=(Bade Fateh Ali Khan)
PLAYORDER=
